<?xml version="1.0" standalone="no"?>
<!DOCTYPE svg PUBLIC "-//W3C//DTD SVG 20010904//EN"
 "http://www.w3.org/TR/2001/REC-SVG-20010904/DTD/svg10.dtd">
<svg version="1.0" xmlns="http://www.w3.org/2000/svg"
 width="1024.000000pt" height="1024.000000pt" viewBox="0 0 1024.000000 1024.000000"
 preserveAspectRatio="xMidYMid meet">

<g transform="translate(0.000000,1024.000000) scale(0.100000,-0.100000)"
fill="#000000" stroke="none">
<path d="M0 5120 l0 -5120 5120 0 5120 0 0 5120 0 5120 -5120 0 -5120 0 0
-5120z m3525 3920 c5 -17 -14 -41 -98 -123 -127 -125 -192 -212 -256 -342 -71
-142 -95 -249 -88 -390 5 -129 28 -210 85 -304 133 -220 368 -363 707 -430
110 -22 294 -41 394 -41 53 0 69 -4 88 -22 l23 -21 0 -507 0 -507 -23 -34
c-29 -44 -87 -73 -131 -65 -18 4 -84 37 -147 74 -182 108 -290 163 -519 267
-118 54 -251 115 -295 137 -269 135 -480 337 -604 578 -97 189 -134 337 -134
535 1 153 22 277 73 410 132 352 424 632 810 776 91 34 107 35 115 9z m3296
-9 c212 -82 375 -188 528 -346 182 -187 290 -390 336 -629 22 -115 20 -326 -4
-442 -74 -355 -319 -667 -681 -867 -36 -20 -175 -86 -310 -147 -258 -117 -406
-192 -530 -269 -138 -86 -195 -97 -254 -50 -57 45 -56 35 -56 583 l0 505 24
19 c21 16 48 20 168 25 323 14 600 93 795 225 95 64 195 178 242 273 58 118
76 194 74 314 -1 123 -33 239 -100 366 -62 118 -130 206 -250 325 -57 56 -103
108 -103 116 0 37 24 36 121 -1z m-1584 -1278 c55 -71 111 -146 126 -168 l27
-40 0 -441 c0 -242 3 -508 6 -590 l7 -150 66 -35 c44 -22 96 -64 157 -124 77
-76 98 -105 138 -185 101 -205 103 -422 7 -635 -84 -186 -256 -327 -468 -387
-151 -41 -366 -23 -496 44 -260 132 -417 376 -417 650 0 114 12 175 52 278 56
141 189 290 321 360 l66 35 3 591 3 591 133 177 c116 153 136 175 152 166 10
-5 63 -67 117 -137z m-1832 -1413 c56 -35 273 -158 359 -204 21 -12 41 -27 43
-34 3 -6 -31 -68 -76 -137 -141 -214 -226 -436 -250 -648 -5 -41 -12 -80 -15
-86 -5 -8 -101 -11 -311 -11 l-305 0 -6 24 c-3 13 0 68 6 122 44 374 186 729
402 1006 l29 38 32 -17 c18 -9 59 -33 92 -53z m3637 -60 c150 -221 264 -489
313 -735 27 -133 46 -291 38 -312 -4 -10 -66 -13 -314 -13 l-308 0 -6 38 c-23
131 -50 249 -76 327 -39 118 -125 290 -205 410 -35 53 -64 100 -64 104 0 4 51
36 113 71 61 35 175 101 252 147 77 46 149 82 160 81 13 -2 48 -44 97 -118z
m-3585 -1458 c6 -4 19 -47 27 -97 38 -214 126 -432 252 -623 136 -205 359
-409 560 -510 33 -17 66 -37 72 -45 9 -11 12 -98 10 -343 l-3 -329 -41 1 c-53
1 -330 136 -474 232 -200 134 -392 305 -527 473 -268 331 -446 759 -486 1172
-8 79 -17 77 311 77 158 0 292 -4 299 -8z m3921 -4 c38 -38 -37 -414 -129
-641 -179 -445 -476 -806 -884 -1075 -107 -71 -415 -223 -465 -229 -36 -5 -40
-3 -50 21 -11 30 -14 441 -4 572 l7 82 76 42 c139 77 244 154 348 253 245 236
401 519 468 850 13 66 30 124 37 129 22 13 582 10 596 -4z m-2563 -91 c61 -36
120 -73 133 -82 l22 -16 0 -1459 0 -1458 36 -49 c20 -26 52 -65 72 -85 41 -44
37 -45 117 52 l57 69 -2 1316 c0 724 2 1385 6 1470 l7 154 135 80 c75 44 139
78 144 75 4 -3 8 -711 8 -1573 l0 -1567 -22 -30 c-13 -16 -79 -97 -148 -179
-69 -83 -154 -187 -190 -232 -36 -46 -69 -83 -75 -83 -5 1 -39 37 -75 82 -36
45 -121 150 -190 232 -69 83 -135 164 -148 180 l-22 29 0 1574 c0 1256 3 1574
13 1570 6 -3 62 -34 122 -70z"/>
<path d="M5035 6140 c-103 -21 -158 -51 -235 -129 -59 -59 -81 -89 -98 -136
-68 -182 -34 -360 95 -490 214 -218 591 -156 722 118 87 182 53 372 -92 517
-103 101 -253 148 -392 120z"/>
</g>
</svg>
